<svg width="56" height="70" viewBox="0 0 56 70" fill="none" xmlns="http://www.w3.org/2000/svg">
<path d="M54.0097 61.3684C54.0097 60.5475 53.5573 59.5442 53.5573 58.5408C54.3716 59.1793 50.9337 55.3484 52.9241 57.2639C54.0097 58.176 54.3716 58.176 52.3812 55.9869C47.8578 51.4263 54.9144 56.8078 52.0194 54.6187C48.5816 50.4229 48.5816 50.4229 52.0194 52.7944C54.3716 53.9802 51.2956 51.4263 51.2956 50.7878C54.0097 53.1593 54.3716 53.1593 50.9338 48.9635C55.4572 53.1593 51.2956 48.5987 50.5719 47.5953C52.9241 49.5108 50.9338 46.7744 49.8481 45.7711C53.5573 48.2338 50.5719 45.0414 49.4863 43.582C50.5719 44.038 50.5719 44.4029 48.9434 41.7577C49.8481 43.0347 50.5719 42.2138 48.5816 39.8423C46.9531 38.4741 50.5719 40.8456 47.8578 38.018C50.9338 40.8456 49.4863 38.018 47.496 36.285C42.0678 30.6298 45.8675 33.4574 46.9531 33.9134C45.5056 32.6365 44.42 31.2683 46.4103 32.0892C46.9531 32.6365 52.9241 37.6532 45.8675 30.2649C46.9532 31.2683 47.496 30.6298 45.5057 28.4407C45.8675 28.4407 47.496 29.444 45.1438 26.7077C45.1438 26.1604 46.9532 27.4374 44.42 24.2449C42.9725 22.8767 42.0678 21.0525 44.0582 22.5119C42.4297 20.6876 40.9822 19.3194 43.5153 20.6876C44.42 21.0525 42.4297 18.8634 42.9725 18.8634C42.4297 18.3161 42.9725 18.3161 42.4297 17.4952C41.3441 15.6709 40.9822 15.1237 42.0679 15.6709C41.3441 14.6676 40.4394 13.2994 41.3441 13.9379C42.2488 14.2115 41.2536 12.8434 40.9822 12.4785C40.9822 11.9312 40.9822 11.5664 40.4394 11.1103C38.9919 4.72544 37.9063 0.529663 37.9063 0.529663H18.0937C18.0937 0.529663 17.4604 1.98906 17.0081 4.72544C16.5557 5.1815 16.5557 6.09363 16.5557 6.91454C17.4604 9.28606 15.4701 8.37394 15.4701 9.74213C17.0081 11.5664 14.6559 9.74213 15.0178 11.1103C15.9225 11.9312 13.9321 11.1103 15.0178 12.4785C18.0937 15.6709 11.0372 10.563 14.6559 13.9379C11.9418 12.4785 11.58 12.9346 13.8417 15.5797C13.5703 15.3061 13.1179 16.2182 13.5703 17.4952C20.084 24.2449 10.042 16.127 13.1179 18.8634C20.084 26.1604 7.41842 15.1237 12.4847 20.6876C8.14217 17.1303 19.6317 28.8968 11.9418 22.5119C15.4701 26.7077 11.58 23.8801 11.58 24.2449C5.42811 19.6843 9.58966 24.8834 11.0372 26.7077C4.61389 22.0558 11.0372 27.4374 10.4943 28.4407C3.98062 22.8767 10.042 29.444 10.042 30.2649C30.9402 50.4229 2.53312 25.2483 9.58966 32.0892C7.41842 31.6331 7.05654 31.6331 8.95638 33.9134C13.6607 39.751 3.52827 31.2683 8.50404 36.285C8.14216 36.6498 7.05654 36.6498 8.14216 38.018C3.52827 34.8256 3.98061 35.8289 7.41842 39.8423C6.15186 39.4774 1.99031 36.6498 7.05654 41.7577C6.15186 41.7577 10.4943 45.7711 6.51373 43.582C8.50404 46.2271 8.50404 47.2305 6.15186 45.7711C10.4943 50.4229 11.0372 51.7911 5.06624 47.2305C5.06624 48.2338 10.042 53.1593 5.42811 49.9668C10.042 53.9802 7.05655 52.7944 5.42811 51.7911C7.41842 54.6187 11.0372 57.8111 3.98061 52.7944C3.52827 53.1593 3.07593 53.1593 3.52827 54.6187C5.42811 56.8078 3.98061 55.9869 2.53312 54.9835C1.62843 54.9835 1.08562 54.9835 1.99031 56.3517C1.99031 57.2638 2.53312 58.176 2.53312 58.5408C1.99031 59.5442 1.99031 60.5475 1.62843 61.3684L0 67.7533H14.6559C15.9225 67.7533 19.6317 70.5809 17.0081 67.7533C18.546 69.1215 18.0937 68.3006 17.4604 67.3884C20.084 69.6688 23.0695 71.9491 16.5557 65.0169C18.546 66.3851 15.0178 62.7366 17.4604 65.0169C22.4362 67.7533 10.042 55.3484 18.9984 62.7366C23.4313 66.4763 13.9321 56.3517 18.9984 60.5475C23.8837 64.6521 15.9225 56.8078 18.9984 59.1793C23.0695 61.3684 18.9984 56.8078 20.084 57.2639C15.4701 52.156 11.58 47.5953 19.6317 55.9869C25.0598 61.0036 23.0695 58.176 21.9838 55.9869C23.0695 55.9869 27.412 59.5442 25.0598 55.9869C30.0355 59.5442 25.0598 53.9802 28.1357 55.9869C27.0501 53.6154 30.9402 55.9869 30.9402 55.9869L34.7399 59.0881C35.2827 59.6354 36.0969 60.6387 37.454 61.8245C38.5396 63.7399 40.0775 65.929 37.9063 65.0169C38.3586 65.5642 38.811 66.0202 39.0824 66.3851C39.7157 66.6587 40.3489 67.0236 41.3441 67.7533C38.5396 64.5608 45.1438 69.6687 44.0582 67.7533C47.8578 70.1248 46.4103 68.7566 47.496 67.7533C48.9435 68.7566 49.4863 67.7533 50.5719 67.7533H56C56 67.7533 54.9144 65.5642 54.0097 61.3684L54.0097 61.3684ZM28.1357 46.2271C27.4119 46.592 23.3409 43.4908 22.0743 42.8523C19.6317 40.2983 16.8271 37.4707 22.4362 41.7577C19.6316 38.4741 16.5557 35.2816 23.0695 40.3895C22.4362 39.0213 26.5977 43.0347 23.5218 39.0213C21.622 36.285 29.4022 43.0347 23.5218 37.1971C26.5977 39.4774 8.50403 22.8767 23.9741 35.8289C28.4976 38.4741 20.084 30.6298 24.4265 33.9134C23.0695 31.6331 17.4604 26.1604 25.0598 32.0892C32.1163 37.5619 28.9499 34.4607 25.0598 30.2649C20.084 25.2483 24.4265 28.4407 25.5121 28.4407C23.5218 26.1604 25.9645 28.4407 25.9645 27.0725C25.5121 25.7043 20.8982 21.691 26.5977 25.2483C25.5121 23.8801 28.1357 24.8834 26.5977 23.8801C22.4362 19.6843 25.0598 21.0525 27.0501 22.5119C23.9741 18.3161 26.5977 19.3194 27.4119 19.6843C28.1357 18.8634 25.0598 15.1237 28.1357 17.86C34.0161 23.424 27.4119 18.8634 28.4976 19.6843C30.0355 21.691 25.9645 18.8634 28.9499 22.5119C28.9499 22.5119 25.9645 20.6876 28.9499 23.8801C28.9499 23.8801 30.4879 25.7043 29.4023 25.2483C30.9402 27.0725 31.5735 28.4407 30.0355 27.0725C27.4119 25.7043 28.4976 26.7077 30.4879 28.4407C30.4879 29.444 31.5735 30.6298 30.4879 30.2649C33.5638 33.9134 32.4782 32.6365 30.9402 32.0892C33.5638 35.2816 40.9822 41.7577 31.5735 33.9134C33.5638 36.6498 27.0501 31.2683 32.0258 35.8289C28.4976 32.6365 27.0501 31.6331 32.0258 37.1971C27.412 33.4574 29.4023 35.8289 32.4782 39.0213C37.6349 44.3117 27.412 34.8256 32.8401 40.3895C33.5638 42.5786 30.9402 39.8423 32.8401 41.7577C33.5638 42.5786 35.916 45.4062 33.5638 44.038C35.916 48.2338 22.4362 35.8289 33.9257 46.2271L33.1115 45.5886L33.5638 46.2271C40.0775 53.1593 36.6397 51.4262 30.9402 46.2271C23.0695 40.8456 25.0598 44.038 28.1357 46.2271H28.1357ZM25.0598 46.2271C23.8837 45.4062 22.979 44.6765 22.2552 44.2205L21.9838 44.038C23.3409 44.9502 23.9741 44.8589 24.1551 44.9502C25.0598 45.5886 25.3312 46.5008 25.0598 46.2271H25.0598ZM21.622 46.2271C20.8982 45.6799 21.8029 45.7711 22.3457 46.4096C23.1599 47.4129 24.1551 48.6899 21.622 46.2271ZM37.0016 59.1793C36.9111 59.1793 36.3683 58.9057 35.8255 58.4496C35.1018 57.8111 34.4685 56.9902 33.5638 55.9869C29.8546 51.8823 28.4976 48.2338 35.916 55.9869C37.9063 57.2639 35.916 55.9869 36.6397 56.8078C43.5153 63.7399 33.5638 55.3484 37.0016 59.1793H37.0016ZM37.9063 66.4763C37.9968 66.6587 38.2682 66.75 38.5396 66.9324C40.0775 68.0269 40.168 67.6621 39.0824 66.3851C37.9968 65.8378 37.8158 66.0203 37.9063 66.4763V66.4763ZM38.1777 67.206C38.0872 66.9324 37.9063 66.75 37.9063 66.4763C36.9111 65.8378 37.0921 66.3851 38.1777 67.206ZM38.9919 67.7533C38.811 67.5709 38.3586 67.3884 38.1777 67.206C38.811 67.9357 39.3538 68.5742 38.9919 67.7533Z" fill="white"/>
</svg>
