<svg width="80" height="71" viewBox="0 0 80 71" fill="none" xmlns="http://www.w3.org/2000/svg">
<path d="M74.8807 27.4918C78.2646 30.109 75.9219 27.1428 75.141 25.747C73.3189 23.3042 72.1909 22.0828 75.6616 24.0021L76.0087 22.2573C78.1779 11.3521 80 2.71521 80 2.71521H64.0347C64.0347 2.71521 63.7744 5.68142 62.9935 9.95626C62.9935 10.4797 62.9067 11.0032 62.82 11.4394C58.3948 8.29867 66.6377 15.9759 62.6464 13.0097C64.8156 15.627 62.82 14.1439 62.3861 14.7545C65.0759 17.5463 59.8699 13.6204 62.039 16.5866C57.3536 12.8352 63.0803 18.2442 61.8655 18.4187C60.7375 17.7207 60.9111 18.2442 61.5184 20.1635C65.8568 25.747 62.7332 22.868 61.3449 21.9956C69.154 29.7601 60.3037 22.519 60.9111 23.9149C54.1432 17.6335 63.6876 27.4918 60.7375 25.8342C59.3492 25.3108 60.2169 27.1428 60.4772 27.7535C66.2907 35.0818 57.7006 26.6194 60.2169 29.5856C60.8243 30.8942 56.6594 28.0152 59.8698 31.5049C59.7831 32.0283 62.9935 35.6925 59.5228 33.337C59.3492 33.6859 58.9154 34.1221 59.3492 35.169C59.3492 35.6925 57.2668 34.6456 59.1757 36.9139C57.8742 36.5649 58.9154 38.048 58.8286 38.5715C57.7874 44.5911 57.2668 48.866 57.2668 48.866C57.2668 48.866 56.3124 44.5911 55.1844 38.5715L54.7505 36.9139C54.9241 36.5649 54.4902 35.867 54.3167 35.169C55.4447 35.6925 56.7462 36.4777 54.3167 33.5987C57.0065 35.6925 53.1887 31.4177 53.1887 31.0687C54.1432 31.1559 53.0152 29.5856 53.2755 29.5856C55.6182 31.1559 55.4447 30.8942 53.7093 28.4514C51.8872 26.1832 46.0737 20.2507 53.1019 26.3576C51.8004 25.1363 56.2256 28.4514 52.1475 24.0021C51.2798 22.6935 48.9371 19.2911 51.6269 21.9956C52.4946 22.3445 44.6855 14.0566 51.2798 20.1635C51.1063 18.8549 53.1019 20.0763 51.0195 18.4187C53.3623 20.1635 46.4208 13.5331 50.4989 16.5866C47.462 12.9225 54.1432 19.5528 50.1518 14.7545C45.2928 9.95625 44.3384 8.82211 49.9783 13.0097C48.4165 11.5266 49.3709 12.3118 49.4577 11.4394C45.9002 7.16452 56.6594 16.7611 49.1974 9.95625C55.4447 14.929 49.1974 8.8221 49.0239 8.64762C51.6269 10.4797 51.0195 8.73486 48.3297 6.20486C49.2842 6.37934 51.3666 8.3859 48.0694 4.28555C48.1562 3.41313 49.3709 4.809 47.6356 2.7152C44.5119 0.0107135 48.3297 4.63451 45.2061 2.7152C42.0824 1.14485 50.1518 8.99659 42.8633 2.7152C41.2147 1.40658 36.5293 -1.47239 40 2.7152C39.9132 3.15141 39.3059 3.67486 37.2234 2.7152C34.8807 1.58106 35.4881 3.06417 34.7072 2.7152C33.2321 2.19175 32.7983 2.80244 32.4512 3.06417C35.4013 5.2452 30.0217 1.2321 31.8438 4.28555C34.2733 7.339 34.7072 7.94969 31.5835 6.37934C27.679 3.06417 24.295 0.35968 30.0217 6.20486C26.6377 4.02382 28.6334 5.33244 31.0629 8.64762C33.6659 11.6138 33.3189 12.05 31.2364 10.4797C30.282 11.0031 29.6746 9.34555 31.1497 12.05C30.0217 12.3118 29.5878 12.05 30.282 13.3587C30.1085 14.0566 27.679 12.05 29.6746 14.7545C30.282 15.7142 28.3731 14.8418 29.9349 16.8483C29.4143 17.3718 29.154 17.7207 29.0672 18.4187C27.2451 26.8811 25.1627 37.0884 23.8612 43.2825C23.6876 43.8932 23.0803 44.1549 23.4273 45.2891C21.6052 44.8529 23.2538 47.4701 22.9935 47.9063C23.6876 48.866 23.4273 49.0404 23.167 48.9532C22.9067 48.4298 22.2126 47.4701 22.4729 47.2956C23.0803 47.5573 20.564 44.5039 22.1258 45.4635C17.7874 41.1015 21.1714 42.9335 21.7787 43.108C21.7787 42.6718 21.692 42.2356 21.692 41.7122L15.705 2.7152H0L5.72668 31.2432C5.90022 31.9411 6.16052 32.3773 6.24729 33.0752C8.32971 35.169 7.80911 35.6052 6.59436 34.9073C10.2386 38.5715 9.54447 38.5715 7.20173 36.7394C10.2386 40.4035 6.33406 36.9139 7.46204 38.5715C12.321 43.6315 8.50325 40.578 7.72234 40.4908C10.3254 43.108 13.0152 46.3359 8.24295 42.3228C7.54881 42.4101 1.21475 36.4777 8.50325 44.1549C9.28417 45.5508 9.71801 46.5104 8.85033 45.8125C8.67679 46.4232 9.1974 46.3359 9.37093 47.5573C4.3384 43.8059 13.2755 51.6577 9.63124 49.3022C14.6638 54.4494 9.1974 50.3491 10.4121 51.396C10.3254 51.8322 1.73536 44.5039 10.3254 52.6173C1.99566 45.5508 15.0976 57.9391 11.6269 55.0601C10.7592 54.5366 11.4534 55.8453 11.1931 55.6708C5.20608 50.9597 5.29285 51.396 11.6269 57.4156C12.4078 58.5498 7.63558 54.4494 11.5401 58.4625C15.3579 62.3884 5.20608 54.6239 11.8872 60.9053C15.705 65.0056 7.72235 58.0263 12.4946 62.9118C8.41649 59.2477 18.7419 69.3677 12.7549 64.7439C14.4902 66.7505 14.1432 66.8377 13.7093 66.4887L15.6182 68.4953C17.8742 70.1529 20.1302 71.8105 15.9653 67.0994C19.0889 69.106 16.5727 66.3142 18.308 66.7504C17.7874 66.4015 17.7874 65.0056 19.6095 66.4887C28.1128 73.9915 21.7787 67.1867 21.8655 67.0994C19.8699 64.3949 22.4729 66.227 22.82 66.4887C33.0586 75.4746 24.5553 67.5356 24.5553 66.6632C27.2451 68.8442 29.2408 70.0656 26.2039 66.7504C18.308 58.4625 27.0716 66.4887 27.679 67.0994C25.7701 64.6567 30.7158 68.2336 30.0217 67.2739C30.0217 67.0994 30.0217 66.9249 29.9349 66.8377C26.6377 63.697 20.9111 58.0263 31.1497 67.1867C30.1085 65.3546 32.3644 67.3611 30.9761 65.4418C25.1627 59.3349 29.9349 63.6098 31.41 63.697C17.5271 49.8256 28.2863 58.986 32.0174 61.0798C33.666 62.0394 29.6746 58.0263 32.2777 59.8584C35.7484 61.9522 31.2364 57.4156 32.7115 58.288C35.2278 60.7308 27.2451 52.2684 33.1453 56.7177C33.3189 56.4559 35.4013 57.5901 33.4924 55.0601C32.1041 53.0535 35.4013 55.4091 34.0998 53.4897L34.3601 51.6577C37.0499 41.2759 40.0868 29.3238 40.0868 29.3238L49.4577 67.0994H66.7245C66.7245 67.0994 67.8525 60.9925 69.6746 52.6173L69.9349 50.8725C69.0672 49.7384 70.7158 50.0873 70.1952 49.3021C70.7158 49.0404 70.7158 48.3425 70.7158 47.5573C69.7614 45.987 72.1909 47.6446 70.9761 45.8125C73.1453 47.0339 73.9263 47.0339 71.2364 44.1549C70.0217 42.0611 70.0217 41.7121 71.8438 42.3228C69.9349 40.0545 71.1497 40.4908 72.1041 40.4908C72.9718 41.1887 72.885 39.9673 72.7115 38.5714C64.9892 31.3304 76.269 41.0142 72.9718 36.7394C76.0087 38.9204 79.6529 42.4101 73.2321 34.9073C72.7115 33.5114 81.3883 41.5377 73.8395 33.0752C76.269 34.1221 69.8482 28.1897 74.0998 31.2432C80.2603 37.5246 66.6377 23.1297 74.5336 29.4111C82.4295 36.3904 73.3189 27.3173 74.8807 27.4918L74.8807 27.4918ZM32.4512 3.06417L32.1909 2.7152C32.2777 3.06417 32.3644 3.06417 32.4512 3.06417ZM13.3623 67.0994C11.3666 65.4419 21.8655 74.9512 15.6182 68.4953C13.7961 67.1867 12.2343 65.8781 13.3623 67.0994ZM13.7093 66.4888C13.7093 66.4888 13.6226 66.4015 13.5358 66.3143L13.7093 66.4888ZM30.3688 67.0994C30.1085 66.8377 29.9349 66.4888 29.7614 66.3143C29.7614 66.4888 29.9349 66.6632 29.9349 66.8377C31.6703 68.4081 32.7983 69.455 30.3688 67.0994Z" fill="white"/>
</svg>
